<svg width="13" height="15" viewBox="0 0 13 15" fill="none" xmlns="http://www.w3.org/2000/svg">
<path d="M7.65961 13.8891C9.79413 13.4617 12.5541 11.926 12.5541 7.95533C12.5541 4.34249 9.90953 1.9362 8.00785 0.830704C7.58518 0.584886 7.0915 0.907863 7.0915 1.39609V2.64429C7.0915 3.62893 6.6777 5.42614 5.52782 6.17383C4.94059 6.55553 4.30556 5.98401 4.23454 5.28752L4.17582 4.71531C4.10754 4.05024 3.43017 3.64669 2.89893 4.05229C1.94366 4.7795 0.946045 6.05639 0.946045 7.95465C0.946045 12.8102 4.55752 14.025 6.36292 14.025C6.46853 14.025 6.57869 14.0216 6.69341 14.0147C5.80163 13.939 4.36018 13.3859 4.36018 11.5969C4.36018 10.1971 5.38101 9.25134 6.1567 8.79043C6.36565 8.66752 6.60942 8.82798 6.60942 9.07039V9.47326C6.60942 9.78053 6.72891 10.2619 7.01229 10.591C7.33322 10.9639 7.80369 10.5733 7.84124 10.083C7.85353 9.9287 8.00922 9.83038 8.14305 9.90822C8.58074 10.1643 9.13998 10.7105 9.13998 11.5969C9.13998 12.9953 8.36907 13.6385 7.65961 13.8891Z" fill="#1A1A1A" fill-opacity="0.4"/>
</svg>
