<svg width="65" height="65" viewBox="0 0 65 65" fill="none" xmlns="http://www.w3.org/2000/svg">
<g clip-path="url(#clip0_0_2178)">
<path d="M32.5625 63.9966C43.7045 63.9966 49.2757 63.9969 53.5361 61.8394C57.334 59.916 60.4194 56.8306 62.3428 53.0327C64.5004 48.7723 64.5 43.2011 64.5 32.0591C64.5 20.9171 64.5004 15.3459 62.3428 11.0854C60.4194 7.28758 57.334 4.20219 53.5361 2.27881C49.2757 0.12122 43.7045 0.121582 32.5625 0.121582C21.4205 0.121582 15.8493 0.12122 11.5889 2.27881C7.791 4.20219 4.70561 7.28758 2.78223 11.0854C0.624637 15.3459 0.625 20.9171 0.625 32.0591C0.625 43.2011 0.624637 48.7723 2.78223 53.0327C4.70561 56.8306 7.791 59.916 11.5889 61.8394C15.8493 63.9969 21.4205 63.9966 32.5625 63.9966Z" fill="#1F1F1F"/>
<path fill-rule="evenodd" clip-rule="evenodd" d="M18.903 9.49715H-2.05127V13.7277H6.24934V31.9523H10.5718V13.7277H18.903V9.49715ZM40.59 9.49715H20.8302V31.9523H40.59V27.6911H25.1527V22.8859H40.4674V18.6248H25.1527V13.7277H40.59V9.49715ZM47.9851 9.49715H42.4886L53.2803 23.6568V31.9523H57.6334V23.5764L68.3639 9.49715H62.9301L55.4424 19.2584L47.9851 9.49715ZM20.1623 33.7215C16.8075 33.7215 13.9996 34.7121 11.8721 36.793L11.8697 36.7953L11.8673 36.7976C9.74091 38.9004 8.75092 41.798 8.75092 45.3166C8.75092 48.818 9.74251 51.7108 11.8625 53.8308L11.8672 53.8356L11.8721 53.8403C13.9996 55.9211 16.8075 56.9117 20.1623 56.9117C22.8138 56.9117 25.1551 56.2167 27.1248 54.78C29.1207 53.3241 30.4023 51.273 30.9914 48.7125L31.2623 47.5353L27.0376 46.5495L26.7861 47.7669C26.4525 49.3823 25.7047 50.5554 24.5664 51.3802L24.563 51.3827L24.5596 51.3852C23.4135 52.228 21.9717 52.6812 20.1623 52.6812C17.7867 52.6812 16.1019 52.0112 14.9356 50.8121C13.7685 49.6121 13.104 47.8403 13.104 45.3166C13.104 42.7949 13.7674 41.024 14.9328 39.824C16.1233 38.6188 17.8131 37.952 20.1623 37.952C21.889 37.952 23.2496 38.3539 24.3153 39.0865L24.3189 39.089L24.3225 39.0915C25.4042 39.8237 26.2293 40.9136 26.7689 42.4425L27.1256 43.4532L31.328 42.5272L30.8581 41.2287C30.0058 38.8738 28.6246 37.003 26.6985 35.6802C24.7869 34.3674 22.5938 33.7215 20.1623 33.7215ZM45.8326 33.9972H41.4924L30.1962 56.4523H35.1146L38.1937 50.3264H49.2385L52.3715 56.4523H57.1975L45.8326 33.9972ZM47.0749 46.0958H40.3201L43.6682 39.4347L47.0749 46.0958Z" fill="white"/>
</g>
<defs>
<clipPath id="clip0_0_2178">
<rect width="64" height="64" rx="20" transform="matrix(1 0 0 -1 0.5 64.1216)" fill="white"/>
</clipPath>
</defs>
</svg>
