<svg width="18" height="18" viewBox="0 0 18 18" fill="none" xmlns="http://www.w3.org/2000/svg">
<path fill-rule="evenodd" clip-rule="evenodd" d="M13.4169 3.32504C12.4826 3.32504 11.7252 4.08243 11.7252 5.01671V12.4833C11.7252 13.4176 12.4826 14.1749 13.4169 14.1749C14.3511 14.1749 15.1085 13.4176 15.1085 12.4833V5.01671C15.1085 4.08243 14.3511 3.32504 13.4169 3.32504ZM8.75019 5.7199C7.81591 5.7199 7.05852 6.47729 7.05852 7.41157V12.4833C7.05852 13.4176 7.81591 14.1749 8.75019 14.1749C9.68447 14.1749 10.4419 13.4176 10.4419 12.4833V7.41157C10.4419 6.47729 9.68447 5.7199 8.75019 5.7199ZM4.08352 7.63938C3.14923 7.63938 2.39185 8.39677 2.39185 9.33105V12.4833C2.39185 13.4176 3.14923 14.1749 4.08352 14.1749C5.0178 14.1749 5.77519 13.4176 5.77519 12.4833V9.33105C5.77519 8.39677 5.0178 7.63938 4.08352 7.63938Z" fill="#1A1A1A" fill-opacity="0.4"/>
</svg>
