<svg width="15" height="15" viewBox="0 0 15 15" fill="none" xmlns="http://www.w3.org/2000/svg">
<path fill-rule="evenodd" clip-rule="evenodd" d="M6.02692 1.44769C5.91388 1.54914 5.79554 1.64453 5.67241 1.73345C5.45899 1.87669 5.21906 1.97552 4.96697 2.02565C4.85739 2.04714 4.7428 2.05645 4.51434 2.07435C3.94068 2.12019 3.65349 2.14311 3.41429 2.22761C3.1407 2.32405 2.89221 2.48058 2.68709 2.6857C2.48197 2.89082 2.32544 3.13931 2.22901 3.4129C2.1445 3.6521 2.12158 3.93929 2.07574 4.51295C2.06752 4.66458 2.05126 4.81567 2.02704 4.96558C1.97691 5.21767 1.87808 5.4576 1.73484 5.67102C1.67253 5.76412 1.59805 5.8515 1.44908 6.02553C1.07595 6.46383 0.889029 6.68298 0.779453 6.91216C0.526641 7.44214 0.526641 8.05805 0.779453 8.58803C0.889029 8.81721 1.07595 9.03636 1.44908 9.47466C1.59805 9.64869 1.67253 9.73607 1.73484 9.82917C1.87808 10.0426 1.97691 10.2825 2.02704 10.5346C2.04853 10.6442 2.05784 10.7588 2.07574 10.9872C2.12158 11.5609 2.1445 11.8481 2.22901 12.0873C2.32544 12.3609 2.48197 12.6094 2.68709 12.8145C2.89221 13.0196 3.1407 13.1761 3.41429 13.2726C3.65349 13.3571 3.94068 13.38 4.51434 13.4258C4.7428 13.4437 4.85739 13.4531 4.96697 13.4745C5.21906 13.5247 5.45899 13.6242 5.67241 13.7667C5.76551 13.829 5.85289 13.9035 6.02692 14.0525C6.46522 14.4256 6.68437 14.6126 6.91355 14.7221C7.44353 14.9749 8.05944 14.9749 8.58942 14.7221C8.8186 14.6126 9.03775 14.4256 9.47605 14.0525C9.65008 13.9035 9.73746 13.829 9.83056 13.7667C10.044 13.6235 10.2839 13.5247 10.536 13.4745C10.6456 13.4531 10.7602 13.4437 10.9886 13.4258C11.5623 13.38 11.8495 13.3571 12.0887 13.2726C12.3623 13.1761 12.6108 13.0196 12.8159 12.8145C13.021 12.6094 13.1775 12.3609 13.274 12.0873C13.3585 11.8481 13.3814 11.5609 13.4272 10.9872C13.4451 10.7588 13.4544 10.6442 13.4759 10.5346C13.5261 10.2825 13.6256 10.0426 13.7681 9.82917C13.8304 9.73607 13.9049 9.64869 14.0539 9.47466C14.427 9.03636 14.6139 8.81721 14.7235 8.58803C14.9763 8.05805 14.9763 7.44214 14.7235 6.91216C14.6139 6.68298 14.427 6.46383 14.0539 6.02553C13.9524 5.91249 13.857 5.79415 13.7681 5.67102C13.6248 5.45763 13.5255 5.21781 13.4759 4.96558C13.4517 4.81567 13.4354 4.66458 13.4272 4.51295C13.3814 3.93929 13.3585 3.6521 13.274 3.4129C13.1775 3.13931 13.021 2.89082 12.8159 2.6857C12.6108 2.48058 12.3623 2.32405 12.0887 2.22761C11.8495 2.14311 11.5623 2.12019 10.9886 2.07435C10.837 2.06613 10.6859 2.04987 10.536 2.02565C10.2838 1.97611 10.0439 1.87677 9.83056 1.73345C9.70742 1.64453 9.58909 1.54914 9.47605 1.44769C9.03775 1.07456 8.8186 0.887638 8.58942 0.778062C8.32782 0.652853 8.0415 0.58786 7.75148 0.58786C7.46147 0.58786 7.17514 0.652853 6.91355 0.778062C6.68437 0.887638 6.46522 1.07456 6.02692 1.44769ZM10.4952 5.00712C10.6042 5.11641 10.6655 5.26451 10.6655 5.41892C10.6655 5.57333 10.6042 5.72143 10.4952 5.83073L5.83212 10.4945C5.77898 10.5527 5.71462 10.5994 5.64291 10.632C5.57119 10.6646 5.49362 10.6823 5.41487 10.6841C5.33612 10.6859 5.25783 10.6717 5.18472 10.6424C5.11162 10.613 5.04521 10.5692 4.98951 10.5135C4.93381 10.4578 4.88998 10.3914 4.86066 10.3183C4.83133 10.2452 4.81713 10.1669 4.81891 10.0881C4.82068 10.0094 4.8384 9.93182 4.87099 9.8601C4.90357 9.78839 4.95036 9.72403 5.00851 9.67089L9.67085 5.00783C9.78015 4.89876 9.92825 4.8375 10.0827 4.8375C10.2371 4.8375 10.3852 4.89876 10.4945 5.00783M10.4708 9.69381C10.4708 9.8999 10.389 10.0975 10.2432 10.2433C10.0975 10.389 9.89986 10.4709 9.69377 10.4709C9.48768 10.4709 9.29003 10.389 9.14431 10.2433C8.99858 10.0975 8.91671 9.8999 8.91671 9.69381C8.91671 9.48772 8.99858 9.29008 9.14431 9.14435C9.29003 8.99862 9.48768 8.91675 9.69377 8.91675C9.89986 8.91675 10.0975 8.99862 10.2432 9.14435C10.389 9.29008 10.4708 9.48772 10.4708 9.69381ZM5.80848 6.58558C6.01457 6.58558 6.21222 6.50371 6.35794 6.35799C6.50367 6.21226 6.58554 6.01461 6.58554 5.80852C6.58554 5.60244 6.50367 5.40479 6.35794 5.25906C6.21222 5.11334 6.01457 5.03147 5.80848 5.03147C5.60239 5.03147 5.40475 5.11334 5.25902 5.25906C5.11329 5.40479 5.03142 5.60244 5.03142 5.80852C5.03142 6.01461 5.11329 6.21226 5.25902 6.35799C5.40475 6.50371 5.60239 6.58558 5.80848 6.58558Z" fill="#1A1A1A" fill-opacity="0.4"/>
</svg>
