<svg width="16" height="16" viewBox="0 0 16 16" fill="none" xmlns="http://www.w3.org/2000/svg">
<mask id="mask0_56_1942" style="mask-type:alpha" maskUnits="userSpaceOnUse" x="0" y="0" width="16" height="16">
<rect x="0.237793" y="0.25" width="15" height="15" fill="#D9D9D9"/>
</mask>
<g mask="url(#mask0_56_1942)">
<path d="M7.73779 14.625L3.23779 11.25C3.08154 11.1354 2.95915 10.9896 2.87061 10.8125C2.78206 10.6354 2.73779 10.4479 2.73779 10.25V2.75C2.73779 2.40625 2.86019 2.11198 3.10498 1.86719C3.34977 1.6224 3.64404 1.5 3.98779 1.5H11.4878C11.8315 1.5 12.1258 1.6224 12.3706 1.86719C12.6154 2.11198 12.7378 2.40625 12.7378 2.75V10.25C12.7378 10.4479 12.6935 10.6354 12.605 10.8125C12.5164 10.9896 12.394 11.1354 12.2378 11.25L7.73779 14.625ZM7.08154 9.625L10.6128 6.09375L9.73779 5.1875L7.08154 7.84375L5.76904 6.53125L4.86279 7.40625L7.08154 9.625Z" fill="#1A1A1A" fill-opacity="0.4"/>
</g>
</svg>
